<svg xmlns="http://www.w3.org/2000/svg" style="display: none;">
  <symbol id="icon-home" viewBox="0 0 24 24">
    <path d="M12 2L2 12h3v8h6v-6h2v6h6v-8h3L12 2z" fill="currentColor"/>
  </symbol>
  <symbol id="icon-analytics" viewBox="0 0 24 24">
    <path d="M3 12h6v9H3v-9zm7-4h6v13h-6V8zm7-6h6v19h-6V2z" fill="currentColor"/>
  </symbol>
  <symbol id="icon-palette" viewBox="0 0 24 24">
    <path d="M12 2C6.48 2 2 6.48 2 12s4.48 10 10 10c.84 0 1.5-.68 1.5-1.5 0-.39-.15-.74-.39-1-.23-.27-.38-.61-.38-.99 0-.84.68-1.51 1.51-1.51h1.76c3.31 0 6-2.69 6-6 0-4.96-4.49-9-10-9zm-3.5 10c-.83 0-1.5-.67-1.5-1.5S7.67 9 8.5 9s1.5.67 1.5 1.5S9.33 12 8.5 12zm3-4C10.67 8 10 7.33 10 6.5S10.67 5 11.5 5s1.5.67 1.5 1.5S12.33 8 11.5 8zm5 0c-.83 0-1.5-.67-1.5-1.5S15.67 5 16.5 5s1.5.67 1.5 1.5S17.33 8 16.5 8zm3 4c-.83 0-1.5-.67-1.5-1.5S18.67 9 19.5 9s1.5.67 1.5 1.5-.67 1.5-1.5 1.5z" fill="currentColor"/>
  </symbol>
  <symbol id="icon-habits" viewBox="0 0 24 24">
    <path d="M19 3h-4.18C14.4 1.84 13.3 1 12 1c-1.3 0-2.4.84-2.82 2H5c-1.1 0-2 .9-2 2v14c0 1.1.9 2 2 2h14c1.1 0 2-.9 2-2V5c0-1.1-.9-2-2-2zm-7 0c.55 0 1 .45 1 1s-.45 1-1 1-1-.45-1-1 .45-1 1-1zm-2 14l-4-4 1.41-1.41L10 14.17l6.59-6.59L18 9l-8 8z" fill="currentColor"/>
  </symbol>
  <symbol id="icon-pencil" viewBox="0 0 24 24">
    <path d="M3 17.25V21h3.75L17.81 9.94l-3.75-3.75L3 17.25zM20.71 7.04c.39-.39.39-1.02 0-1.41l-2.34-2.34c-.39-.39-1.02-.39-1.41 0l-1.83 1.83 3.75 3.75 1.83-1.83z" fill="currentColor"/>
  </symbol>
  <symbol id="icon-sleep" viewBox="0 0 24 24">
    <path d="M12 3c.132 0 .263 0 .393 0a7.5 7.5 0 0 0 7.92 12.446a9 9 0 1 1-8.313-12.454z" fill="currentColor"/>
  </symbol>
</svg>
