<svg xmlns="http://www.w3.org/2000/svg" style="display: none;">
  <symbol id="icon-home" viewBox="0 0 24 24">
    <path d="M12 2L2 12h3v8h6v-6h2v6h6v-8h3L12 2z" fill="currentColor"/>
  </symbol>
  <symbol id="icon-analytics" viewBox="0 0 24 24">
    <path d="M3 12h6v9H3v-9zm7-4h6v13h-6V8zm7-6h6v19h-6V2z" fill="currentColor"/>
  </symbol>
  <symbol id="icon-palette" viewBox="0 0 24 24">
    <path d="M12 2C6.48 2 2 6.48 2 12s4.48 10 10 10c.84 0 1.5-.68 1.5-1.5 0-.39-.15-.74-.39-1-.23-.27-.38-.61-.38-.99 0-.84.68-1.51 1.51-1.51h1.76c3.31 0 6-2.69 6-6 0-4.96-4.49-9-10-9zm-3.5 10c-.83 0-1.5-.67-1.5-1.5S7.67 9 8.5 9s1.5.67 1.5 1.5S9.33 12 8.5 12zm3-4C10.67 8 10 7.33 10 6.5S10.67 5 11.5 5s1.5.67 1.5 1.5S12.33 8 11.5 8zm5 0c-.83 0-1.5-.67-1.5-1.5S15.67 5 16.5 5s1.5.67 1.5 1.5S17.33 8 16.5 8zm3 4c-.83 0-1.5-.67-1.5-1.5S18.67 9 19.5 9s1.5.67 1.5 1.5-.67 1.5-1.5 1.5z" fill="currentColor"/>
  </symbol>
</svg>
